<?xml version="1.0" encoding="UTF-8"?>
<svg xmlns="http://www.w3.org/2000/svg" xmlns:xlink="http://www.w3.org/1999/xlink" width="20px" height="20px" viewBox="0 0 20 20" version="1.1">
<g id="surface1">
<path style=" stroke:none;fill-rule:nonzero;fill:rgb(100%,100%,100%);fill-opacity:1;" d="M 10 4.882812 C 5.292969 4.882812 2.5 10 2.5 10 C 2.5 10 5.292969 15.117188 10 15.117188 C 14.707031 15.117188 17.5 10 17.5 10 C 17.5 10 14.707031 4.882812 10 4.882812 Z M 10 13.054688 C 8.316406 13.054688 6.945312 11.683594 6.945312 10 C 6.945312 8.316406 8.316406 6.945312 10 6.945312 C 11.683594 6.945312 13.054688 8.316406 13.054688 10 C 13.054688 11.683594 11.683594 13.054688 10 13.054688 Z M 10 13.054688 "/>
<path style=" stroke:none;fill-rule:nonzero;fill:rgb(99.607843%,99.607843%,99.607843%);fill-opacity:1;" d="M 11.800781 10 C 11.800781 9.003906 10.996094 8.199219 10 8.199219 C 9.003906 8.199219 8.199219 9.003906 8.199219 10 C 8.199219 10.996094 9.003906 11.800781 10 11.800781 C 10.996094 11.800781 11.800781 10.996094 11.800781 10 Z M 11.800781 10 "/>
</g>
</svg>
